# Blender v2.79 (sub 0) OBJ File: ''
# www.blender.org
o cube
v 0.472222 0.263889 0.055556
v 0.718750 0.531250 0.046875
v 0.765625 0.281250 0.093750
v 0.263889 0.472222 0.055556
v 0.281250 0.765625 0.093750
v 0.531250 0.718750 0.046875
v 0.055556 0.472222 0.263889
v 0.046875 0.718750 0.531250
v 0.093750 0.765625 0.281250
v 0.055556 0.263889 0.472222
v 0.093750 0.281250 0.765625
v 0.046875 0.531250 0.718750
v 0.468750 0.953125 0.281250
v 0.736111 0.944444 0.527778
v 0.718750 0.906250 0.234375
v 0.281250 0.953125 0.468750
v 0.234375 0.906250 0.718750
v 0.527778 0.944444 0.736111
v 0.953125 0.468750 0.281250
v 0.906250 0.718750 0.234375
v 0.944444 0.736111 0.527778
v 0.953125 0.281250 0.468750
v 0.944444 0.527778 0.736111
v 0.906250 0.234375 0.718750
v 0.472222 0.055556 0.263889
v 0.765625 0.093750 0.281250
v 0.718750 0.046875 0.531250
v 0.263889 0.055555 0.472222
v 0.531250 0.046875 0.718750
v 0.281250 0.093750 0.765625
v 0.468750 0.281250 0.953125
v 0.718750 0.234375 0.906250
v 0.736111 0.527778 0.944445
v 0.281250 0.468750 0.953125
v 0.527778 0.736111 0.944445
v 0.234375 0.718750 0.906250
v 0.589410 0.407118 0.025608
v 0.766927 0.411458 0.055990
v 0.621962 0.240451 0.058160
v 0.240451 0.621962 0.058160
v 0.411458 0.766927 0.055990
v 0.407118 0.589410 0.025608
v 0.025608 0.589410 0.407118
v 0.055990 0.766927 0.411458
v 0.058160 0.621962 0.240451
v 0.058160 0.240451 0.621962
v 0.055990 0.411458 0.766927
v 0.025608 0.407118 0.589410
v 0.592882 0.974392 0.410590
v 0.759549 0.941840 0.378038
v 0.588542 0.944010 0.233073
v 0.233073 0.944010 0.588542
v 0.378038 0.941840 0.759549
v 0.410590 0.974392 0.592882
v 0.944010 0.588542 0.233073
v 0.941840 0.759549 0.378038
v 0.974392 0.592882 0.410590
v 0.974392 0.410590 0.592882
v 0.941840 0.378038 0.759549
v 0.944010 0.233073 0.588542
v 0.621962 0.058160 0.240451
v 0.766927 0.055990 0.411458
v 0.589410 0.025608 0.407118
v 0.407118 0.025608 0.589410
v 0.411458 0.055989 0.766927
v 0.240451 0.058160 0.621962
v 0.588542 0.233073 0.944010
v 0.759549 0.378038 0.941840
v 0.592882 0.410590 0.974392
v 0.410590 0.592882 0.974392
v 0.378038 0.759548 0.941840
v 0.233073 0.588542 0.944011
v 0.364583 0.950521 0.364583
v 0.656250 0.937500 0.656250
v 0.950521 0.364583 0.364583
v 0.937500 0.656250 0.656250
v 0.135417 0.135417 0.416667
v 0.166667 0.166667 0.752604
v 0.882812 0.166667 0.364583
v 0.833333 0.117187 0.635417
v 0.062500 0.343750 0.343750
v 0.049479 0.635417 0.635417
v 0.166667 0.882812 0.364583
v 0.117188 0.833333 0.635417
v 0.364583 0.364583 0.950521
v 0.656250 0.656250 0.937500
v 0.364583 0.166667 0.882812
v 0.635417 0.117187 0.833333
v 0.135417 0.416667 0.135417
v 0.166667 0.752604 0.166667
v 0.247396 0.833333 0.833333
v 0.583333 0.864583 0.864583
v 0.635417 0.833333 0.117188
v 0.364583 0.882812 0.166667
v 0.833333 0.635417 0.117188
v 0.882812 0.364583 0.166667
v 0.416667 0.135417 0.135417
v 0.752604 0.166667 0.166667
v 0.343750 0.062500 0.343750
v 0.635417 0.049479 0.635417
v 0.117188 0.635417 0.833333
v 0.166667 0.364583 0.882813
v 0.833333 0.833333 0.247396
v 0.864583 0.864583 0.583333
v 0.343750 0.343750 0.062500
v 0.635417 0.635417 0.049479
v 0.864583 0.583333 0.864583
v 0.833333 0.247396 0.833333
v 0.661844 0.351080 0.040316
v 0.351080 0.661844 0.040316
v 0.040316 0.661844 0.351080
v 0.040316 0.351080 0.661844
v 0.648920 0.959684 0.338156
v 0.338156 0.959684 0.648920
v 0.959684 0.648920 0.338156
v 0.959684 0.338156 0.648920
v 0.661844 0.040316 0.351080
v 0.351080 0.040316 0.661844
v 0.648920 0.338156 0.959684
v 0.338156 0.648920 0.959684
v 0.505208 0.972005 0.505208
v 0.972005 0.505208 0.505208
v 0.127604 0.127604 0.594401
v 0.876953 0.123047 0.500000
v 0.027995 0.494792 0.494792
v 0.123047 0.876953 0.500000
v 0.505208 0.505208 0.972005
v 0.500000 0.123047 0.876953
v 0.127604 0.594401 0.127604
v 0.405599 0.872396 0.872396
v 0.500000 0.876953 0.123047
v 0.876953 0.500000 0.123047
v 0.594401 0.127604 0.127604
v 0.494792 0.027995 0.494792
v 0.123047 0.500000 0.876953
v 0.872396 0.872396 0.405599
v 0.494792 0.494792 0.027995
v 0.872396 0.405599 0.872396
v 0.185185 0.185185 0.185185
v 0.752604 0.752604 0.123698
v 0.876302 0.247396 0.247396
v 0.247396 0.876302 0.247396
v 0.123698 0.752604 0.752604
v 0.247396 0.247396 0.876302
v 0.814815 0.814815 0.814815
v 0.752604 0.123698 0.752604
vn 0.0321 -0.0546 -0.9980
vn 0.1420 -0.3999 -0.9055
vn -0.1370 -0.3248 -0.9358
vn 0.1045 -0.5384 -0.8362
vn -0.1956 -0.4489 -0.8719
vn -0.2498 -0.2498 -0.9355
vn -0.0191 -0.0191 -0.9996
vn 0.2646 0.1209 -0.9568
vn 0.1874 -0.1622 -0.9688
vn 0.1932 0.1932 -0.9619
vn 0.3702 0.2024 -0.9066
vn 0.5277 -0.0159 -0.8493
vn 0.4115 -0.1026 -0.9056
vn 0.4980 -0.3817 -0.7786
vn 0.6548 -0.3147 -0.6872
vn 0.6773 -0.4450 -0.5859
vn 0.4939 -0.5108 -0.7037
vn -0.3999 0.1420 -0.9055
vn -0.0546 0.0321 -0.9980
vn -0.3248 -0.1370 -0.9358
vn -0.4489 -0.1956 -0.8719
vn -0.5384 0.1045 -0.8362
vn -0.3817 0.4980 -0.7786
vn -0.1622 0.1874 -0.9688
vn -0.5108 0.4939 -0.7037
vn -0.4450 0.6773 -0.5859
vn -0.3147 0.6548 -0.6872
vn -0.1026 0.4115 -0.9056
vn 0.1209 0.2646 -0.9568
vn -0.0159 0.5277 -0.8493
vn 0.2024 0.3702 -0.9066
vn -0.9980 0.0321 -0.0546
vn -0.9055 0.1420 -0.3999
vn -0.9358 -0.1370 -0.3248
vn -0.8362 0.1045 -0.5384
vn -0.8719 -0.1956 -0.4489
vn -0.9355 -0.2498 -0.2498
vn -0.9996 -0.0191 -0.0191
vn -0.9568 0.2646 0.1209
vn -0.9688 0.1874 -0.1622
vn -0.9619 0.1932 0.1932
vn -0.9066 0.3702 0.2024
vn -0.8493 0.5277 -0.0159
vn -0.9056 0.4115 -0.1026
vn -0.7786 0.4980 -0.3817
vn -0.6872 0.6548 -0.3147
vn -0.5859 0.6773 -0.4450
vn -0.7037 0.4939 -0.5108
vn -0.9055 -0.3999 0.1420
vn -0.9980 -0.0546 0.0321
vn -0.9358 -0.3248 -0.1370
vn -0.8719 -0.4489 -0.1956
vn -0.8362 -0.5384 0.1045
vn -0.7786 -0.3817 0.4980
vn -0.9688 -0.1622 0.1874
vn -0.7037 -0.5108 0.4939
vn -0.5859 -0.4450 0.6773
vn -0.6872 -0.3147 0.6548
vn -0.9056 -0.1026 0.4115
vn -0.9568 0.1209 0.2646
vn -0.8493 -0.0159 0.5277
vn -0.9066 0.2024 0.3702
vn -0.1209 0.9568 -0.2646
vn 0.1622 0.9688 -0.1874
vn 0.1026 0.9056 -0.4115
vn 0.0159 0.8493 -0.5277
vn -0.2024 0.9066 -0.3702
vn -0.1932 0.9619 -0.1932
vn 0.0191 0.9996 0.0191
vn 0.0546 0.9980 -0.0321
vn 0.3999 0.9055 -0.1420
vn 0.3248 0.9358 0.1370
vn 0.2498 0.9355 0.2498
vn 0.4489 0.8719 0.1956
vn 0.5384 0.8362 -0.1045
vn 0.3817 0.7786 -0.4980
vn 0.5108 0.7037 -0.4939
vn 0.4450 0.5859 -0.6773
vn 0.3147 0.6872 -0.6548
vn -0.2646 0.9568 -0.1209
vn -0.1874 0.9688 0.1622
vn -0.0321 0.9980 0.0546
vn -0.3702 0.9066 -0.2024
vn -0.5277 0.8493 0.0159
vn -0.4115 0.9056 0.1026
vn -0.4980 0.7786 0.3817
vn -0.6548 0.6872 0.3147
vn -0.6773 0.5859 0.4450
vn -0.4939 0.7037 0.5108
vn -0.1420 0.9055 0.3999
vn 0.1370 0.9358 0.3248
vn -0.1045 0.8362 0.5384
vn 0.1956 0.8719 0.4489
vn 0.9568 -0.1209 -0.2646
vn 0.9688 0.1622 -0.1874
vn 0.9980 0.0546 -0.0321
vn 0.9996 0.0191 0.0191
vn 0.9619 -0.1932 -0.1932
vn 0.9066 -0.2024 -0.3702
vn 0.8493 0.0159 -0.5277
vn 0.9056 0.1026 -0.4115
vn 0.7786 0.3817 -0.4980
vn 0.6872 0.3147 -0.6548
vn 0.5859 0.4450 -0.6773
vn 0.7037 0.5108 -0.4939
vn 0.9055 0.3999 -0.1420
vn 0.9358 0.3248 0.1370
vn 0.8362 0.5384 -0.1045
vn 0.8719 0.4489 0.1956
vn 0.9355 0.2498 0.2498
vn 0.9568 -0.2646 -0.1209
vn 0.9688 -0.1874 0.1622
vn 0.9056 -0.4115 0.1026
vn 0.8493 -0.5277 0.0159
vn 0.9066 -0.3702 -0.2024
vn 0.9980 -0.0321 0.0546
vn 0.9055 -0.1420 0.3999
vn 0.9358 0.1370 0.3248
vn 0.8719 0.1956 0.4489
vn 0.8362 -0.1045 0.5384
vn 0.7786 -0.4980 0.3817
vn 0.7037 -0.4939 0.5108
vn 0.5859 -0.6773 0.4450
vn 0.6872 -0.6548 0.3147
vn 0.1420 -0.9055 -0.3999
vn 0.0321 -0.9980 -0.0546
vn -0.1370 -0.9358 -0.3248
vn -0.0191 -0.9996 -0.0191
vn -0.2498 -0.9355 -0.2498
vn -0.1956 -0.8719 -0.4489
vn 0.1045 -0.8362 -0.5384
vn 0.4980 -0.7786 -0.3817
vn 0.1874 -0.9688 -0.1622
vn 0.4939 -0.7037 -0.5108
vn 0.6773 -0.5859 -0.4450
vn 0.6548 -0.6872 -0.3147
vn 0.4115 -0.9056 -0.1026
vn 0.2646 -0.9568 0.1209
vn 0.5277 -0.8493 -0.0159
vn 0.3702 -0.9066 0.2024
vn 0.1932 -0.9619 0.1932
vn -0.0546 -0.9980 0.0321
vn -0.3999 -0.9055 0.1420
vn -0.3248 -0.9358 -0.1370
vn -0.5384 -0.8362 0.1045
vn -0.4489 -0.8719 -0.1956
vn 0.1209 -0.9568 0.2646
vn -0.1622 -0.9688 0.1874
vn 0.2024 -0.9066 0.3702
vn -0.0159 -0.8493 0.5277
vn -0.1026 -0.9056 0.4115
vn -0.3817 -0.7786 0.4980
vn -0.3147 -0.6872 0.6548
vn -0.4450 -0.5859 0.6773
vn -0.5108 -0.7037 0.4939
vn -0.1209 -0.2646 0.9568
vn 0.1622 -0.1874 0.9688
vn 0.0546 -0.0321 0.9980
vn 0.0191 0.0191 0.9996
vn -0.1932 -0.1932 0.9619
vn -0.2024 -0.3702 0.9066
vn 0.0159 -0.5277 0.8493
vn 0.1026 -0.4115 0.9056
vn 0.3817 -0.4980 0.7786
vn 0.3147 -0.6548 0.6872
vn 0.4450 -0.6773 0.5859
vn 0.5108 -0.4939 0.7037
vn 0.3999 -0.1420 0.9055
vn 0.3248 0.1370 0.9358
vn 0.5384 -0.1045 0.8362
vn 0.4489 0.1956 0.8719
vn 0.2498 0.2498 0.9355
vn -0.2646 -0.1209 0.9568
vn -0.1874 0.1622 0.9688
vn -0.4115 0.1026 0.9056
vn -0.5277 0.0159 0.8493
vn -0.3702 -0.2024 0.9066
vn -0.0321 0.0546 0.9980
vn -0.1420 0.3999 0.9055
vn 0.1370 0.3248 0.9358
vn 0.1956 0.4489 0.8719
vn -0.1045 0.5384 0.8362
vn -0.4980 0.3817 0.7786
vn -0.4939 0.5108 0.7037
vn -0.6773 0.4450 0.5859
vn -0.6548 0.3147 0.6872
vn -0.3394 -0.3394 -0.8773
vn 0.2890 0.2890 -0.9127
vn -0.8773 -0.3394 -0.3394
vn -0.9127 0.2890 0.2890
vn -0.2890 0.9127 -0.2890
vn 0.3394 0.8773 0.3394
vn 0.9127 -0.2890 -0.2890
vn 0.8773 0.3394 0.3394
vn -0.3394 -0.8773 -0.3394
vn 0.2890 -0.9127 0.2890
vn -0.2890 -0.2890 0.9127
vn 0.3394 0.3394 0.8773
s 1
f 37//1 39//2 1//3
f 1//3 133//4 97//5
f 97//5 105//6 1//3
f 1//3 137//7 37//1
f 2//8 109//9 37//1
f 2//8 137//7 106//10
f 106//10 95//11 2//8
f 2//8 132//12 38//13
f 3//14 109//9 38//13
f 38//13 96//15 3//14
f 3//14 141//16 98//17
f 98//17 39//2 3//14
f 40//18 42//19 4//20
f 4//20 137//7 105//6
f 105//6 89//21 4//20
f 4//20 129//22 40//18
f 5//23 110//24 40//18
f 40//18 90//25 5//23
f 5//23 142//26 94//27
f 94//27 41//28 5//23
f 6//29 110//24 41//28
f 6//29 131//30 93//31
f 93//31 106//10 6//29
f 6//29 137//7 42//19
f 43//32 45//33 7//34
f 7//34 129//35 89//36
f 89//36 81//37 7//34
f 7//34 125//38 43//32
f 8//39 111//40 43//32
f 8//39 125//38 82//41
f 82//41 84//42 8//39
f 8//39 126//43 44//44
f 9//45 111//40 44//44
f 44//44 83//46 9//45
f 9//45 142//47 90//48
f 90//48 45//33 9//45
f 46//49 48//50 10//51
f 10//51 125//38 81//37
f 81//37 77//52 10//51
f 10//51 123//53 46//49
f 11//54 112//55 46//49
f 46//49 78//56 11//54
f 11//54 144//57 102//58
f 102//58 47//59 11//54
f 12//60 112//55 47//59
f 12//60 135//61 101//62
f 101//62 82//41 12//60
f 12//60 125//38 48//50
f 13//63 113//64 51//65
f 13//63 131//66 94//67
f 94//67 73//68 13//63
f 13//63 121//69 49//70
f 50//71 49//70 14//72
f 14//72 121//69 74//73
f 74//73 104//74 14//72
f 14//72 136//75 50//71
f 15//76 113//64 50//71
f 50//71 103//77 15//76
f 15//76 140//78 93//79
f 93//79 51//65 15//76
f 16//80 114//81 54//82
f 16//80 121//69 73//68
f 73//68 83//83 16//80
f 16//80 126//84 52//85
f 17//86 114//81 52//85
f 52//85 84//87 17//86
f 17//86 143//88 91//89
f 91//89 53//90 17//86
f 54//82 53//90 18//91
f 18//91 130//92 92//93
f 92//93 74//73 18//91
f 18//91 121//69 54//82
f 19//94 115//95 57//96
f 19//94 122//97 75//98
f 75//98 96//99 19//94
f 19//94 132//100 55//101
f 20//102 115//95 55//101
f 55//101 95//103 20//102
f 20//102 140//104 103//105
f 103//105 56//106 20//102
f 57//96 56//106 21//107
f 21//107 136//108 104//109
f 104//109 76//110 21//107
f 21//107 122//97 57//96
f 22//111 116//112 60//113
f 22//111 124//114 79//115
f 79//115 75//98 22//111
f 22//111 122//97 58//116
f 59//117 58//116 23//118
f 23//118 122//97 76//110
f 76//110 107//119 23//118
f 23//118 138//120 59//117
f 24//121 116//112 59//117
f 59//117 108//122 24//121
f 24//121 146//123 80//124
f 80//124 60//113 24//121
f 61//125 63//126 25//127
f 25//127 134//128 99//129
f 99//129 97//130 25//127
f 25//127 133//131 61//125
f 26//132 117//133 61//125
f 61//125 98//134 26//132
f 26//132 141//135 79//136
f 79//136 62//137 26//132
f 27//138 117//133 62//137
f 27//138 124//139 80//140
f 80//140 100//141 27//138
f 27//138 134//128 63//126
f 64//142 66//143 28//144
f 28//144 123//145 77//146
f 77//146 99//129 28//144
f 28//144 134//128 64//142
f 29//147 118//148 64//142
f 29//147 134//128 100//141
f 100//141 88//149 29//147
f 29//147 128//150 65//151
f 30//152 118//148 65//151
f 65//151 87//153 30//152
f 30//152 144//154 78//155
f 78//155 66//143 30//152
f 31//156 119//157 69//158
f 31//156 127//159 85//160
f 85//160 87//161 31//156
f 31//156 128//162 67//163
f 32//164 119//157 67//163
f 67//163 88//165 32//164
f 32//164 146//166 108//167
f 108//167 68//168 32//164
f 69//158 68//168 33//169
f 33//169 138//170 107//171
f 107//171 86//172 33//169
f 33//169 127//159 69//158
f 34//173 120//174 72//175
f 34//173 135//176 102//177
f 102//177 85//160 34//173
f 34//173 127//159 70//178
f 71//179 70//178 35//180
f 35//180 127//159 86//172
f 86//172 92//181 35//180
f 35//180 130//182 71//179
f 36//183 120//174 71//179
f 71//179 91//184 36//183
f 36//183 143//185 101//186
f 101//186 72//175 36//183
f 37//1 109//9 39//2
f 1//3 39//2 133//4
f 97//5 139//187 105//6
f 1//3 105//6 137//7
f 2//8 38//13 109//9
f 2//8 37//1 137//7
f 106//10 140//188 95//11
f 2//8 95//11 132//12
f 3//14 39//2 109//9
f 38//13 132//12 96//15
f 3//14 96//15 141//16
f 98//17 133//4 39//2
f 40//18 110//24 42//19
f 4//20 42//19 137//7
f 105//6 139//187 89//21
f 4//20 89//21 129//22
f 5//23 41//28 110//24
f 40//18 129//22 90//25
f 5//23 90//25 142//26
f 94//27 131//30 41//28
f 6//29 42//19 110//24
f 6//29 41//28 131//30
f 93//31 140//188 106//10
f 6//29 106//10 137//7
f 43//32 111//40 45//33
f 7//34 45//33 129//35
f 89//36 139//189 81//37
f 7//34 81//37 125//38
f 8//39 44//44 111//40
f 8//39 43//32 125//38
f 82//41 143//190 84//42
f 8//39 84//42 126//43
f 9//45 45//33 111//40
f 44//44 126//43 83//46
f 9//45 83//46 142//47
f 90//48 129//35 45//33
f 46//49 112//55 48//50
f 10//51 48//50 125//38
f 81//37 139//189 77//52
f 10//51 77//52 123//53
f 11//54 47//59 112//55
f 46//49 123//53 78//56
f 11//54 78//56 144//57
f 102//58 135//61 47//59
f 12//60 48//50 112//55
f 12//60 47//59 135//61
f 101//62 143//190 82//41
f 12//60 82//41 125//38
f 13//63 49//70 113//64
f 13//63 51//65 131//66
f 94//67 142//191 73//68
f 13//63 73//68 121//69
f 50//71 113//64 49//70
f 14//72 49//70 121//69
f 74//73 145//192 104//74
f 14//72 104//74 136//75
f 15//76 51//65 113//64
f 50//71 136//75 103//77
f 15//76 103//77 140//78
f 93//79 131//66 51//65
f 16//80 52//85 114//81
f 16//80 54//82 121//69
f 73//68 142//191 83//83
f 16//80 83//83 126//84
f 17//86 53//90 114//81
f 52//85 126//84 84//87
f 17//86 84//87 143//88
f 91//89 130//92 53//90
f 54//82 114//81 53//90
f 18//91 53//90 130//92
f 92//93 145//192 74//73
f 18//91 74//73 121//69
f 19//94 55//101 115//95
f 19//94 57//96 122//97
f 75//98 141//193 96//99
f 19//94 96//99 132//100
f 20//102 56//106 115//95
f 55//101 132//100 95//103
f 20//102 95//103 140//104
f 103//105 136//108 56//106
f 57//96 115//95 56//106
f 21//107 56//106 136//108
f 104//109 145//194 76//110
f 21//107 76//110 122//97
f 22//111 58//116 116//112
f 22//111 60//113 124//114
f 79//115 141//193 75//98
f 22//111 75//98 122//97
f 59//117 116//112 58//116
f 23//118 58//116 122//97
f 76//110 145//194 107//119
f 23//118 107//119 138//120
f 24//121 60//113 116//112
f 59//117 138//120 108//122
f 24//121 108//122 146//123
f 80//124 124//114 60//113
f 61//125 117//133 63//126
f 25//127 63//126 134//128
f 99//129 139//195 97//130
f 25//127 97//130 133//131
f 26//132 62//137 117//133
f 61//125 133//131 98//134
f 26//132 98//134 141//135
f 79//136 124//139 62//137
f 27//138 63//126 117//133
f 27//138 62//137 124//139
f 80//140 146//196 100//141
f 27//138 100//141 134//128
f 64//142 118//148 66//143
f 28//144 66//143 123//145
f 77//146 139//195 99//129
f 28//144 99//129 134//128
f 29//147 65//151 118//148
f 29//147 64//142 134//128
f 100//141 146//196 88//149
f 29//147 88//149 128//150
f 30//152 66//143 118//148
f 65//151 128//150 87//153
f 30//152 87//153 144//154
f 78//155 123//145 66//143
f 31//156 67//163 119//157
f 31//156 69//158 127//159
f 85//160 144//197 87//161
f 31//156 87//161 128//162
f 32//164 68//168 119//157
f 67//163 128//162 88//165
f 32//164 88//165 146//166
f 108//167 138//170 68//168
f 69//158 119//157 68//168
f 33//169 68//168 138//170
f 107//171 145//198 86//172
f 33//169 86//172 127//159
f 34//173 70//178 120//174
f 34//173 72//175 135//176
f 102//177 144//197 85//160
f 34//173 85//160 127//159
f 71//179 120//174 70//178
f 35//180 70//178 127//159
f 86//172 145//198 92//181
f 35//180 92//181 130//182
f 36//183 72//175 120//174
f 71//179 130//182 91//184
f 36//183 91//184 143//185
f 101//186 135//176 72//175
